<svg viewBox="0 0 141 141" xmlns="http://www.w3.org/2000/svg" style="fill-rule:evenodd;clip-rule:evenodd"><circle cx="15" cy="15" r="16.9" style="fill:url(#a)" transform="translate(7.917 7.917) scale(4.16667)"/><circle cx="15" cy="15" r="15" style="fill:#d0d4d6;stroke:#8a8993;stroke-width:1px" transform="translate(7.917 7.917) scale(4.16667)"/><path d="M2 20a14.245 14.245 0 0 1-.75-4.563c0-7.817 6.432-14.25 14.25-14.25 3.061 0 6.043.987 8.5 2.813L2 20Z" style="fill:url(#b);fill-rule:nonzero" transform="translate(7.917 7.917) scale(4.16667)"/><path d="M8 1v7M5.5 3a5.507 5.507 0 0 0-3 4.899c0 3.017 2.483 5.5 5.5 5.5s5.5-2.483 5.5-5.5A5.507 5.507 0 0 0 10.5 3" style="fill:none;fill-rule:nonzero;stroke:#c33;stroke-width:1.5px;stroke-linecap:round" transform="translate(37.083 37.419) scale(4.16667)"/><defs><linearGradient id="a" x1="0" y1="0" x2="1" y2="0" gradientUnits="userSpaceOnUse" gradientTransform="rotate(45 1.344 -3.243) scale(47.8)"><stop offset="0" style="stop-color:black;stop-opacity:1"/><stop offset="1" style="stop-color:white;stop-opacity:1"/></linearGradient><linearGradient id="b" x1="0" y1="0" x2="1" y2="0" gradientUnits="userSpaceOnUse" gradientTransform="rotate(39.588 -5.94 15.987) scale(6.7013)"><stop offset="0" style="stop-color:white;stop-opacity:1"/><stop offset="1" style="stop-color:white;stop-opacity:0"/></linearGradient></defs></svg>